<svg width="31" height="43" viewBox="0 0 31 43" fill="none" xmlns="http://www.w3.org/2000/svg">
<g clip-path="url(#clip0_197_3)">
<path d="M20.2187 0.715042C18.741 0.260015 17.1288 0 15.4831 0C10.7475 0 6.48202 2.08012 3.6272 5.36281L10.949 11.3107L20.2187 0.715042Z" fill="#1A73E8"/>
<path d="M3.6273 5.36279C1.37703 7.96294 0 11.3431 0 14.9834C0 17.811 0.570964 20.0861 1.54496 22.1338L10.9491 11.3106L3.6273 5.36279Z" fill="#EA4335"/>
<path d="M15.5167 9.26308C18.8081 9.26308 21.4614 11.8307 21.4614 15.0159C21.4614 16.4135 20.9241 17.7136 20.0508 18.7211C20.0508 18.7211 24.7193 13.3258 29.287 8.09302C27.4062 4.58281 24.1483 1.91766 20.2187 0.715088L10.949 11.3107C12.0573 10.0756 13.6695 9.26308 15.5167 9.26308Z" fill="#4285F4"/>
<path d="M15.5168 20.7362C12.2253 20.7362 9.57201 18.1686 9.57201 14.9834C9.57201 13.5858 10.0758 12.2857 10.949 11.3107L1.54492 22.1338C3.15706 25.579 5.84395 28.3742 8.59801 31.8519L20.0509 18.6886C18.9425 19.9562 17.3304 20.7362 15.5168 20.7362Z" fill="#FBBC04"/>
<path d="M19.8495 35.4921C25.0218 27.6592 31.0337 24.1165 31.0337 15.0159C31.0337 12.5133 30.3955 10.1731 29.2872 8.09302L8.59814 31.8519C9.47138 32.957 10.3782 34.2245 11.2514 35.5246C14.4085 40.2374 13.5353 43.0325 15.5505 43.0325C17.5656 43.0325 16.6924 40.2049 19.8495 35.4921Z" fill="#34A853"/>
</g>
<defs>
<clipPath id="clip0_197_3">
<rect width="31" height="43" fill="white"/>
</clipPath>
</defs>
</svg>
