<svg width="56" height="56" viewBox="0 0 56 56" fill="none" xmlns="http://www.w3.org/2000/svg">
<rect width="56" height="56" rx="10" fill="#10D1EC"/>
<path d="M25.5273 43.6618C27.0968 43.6618 28.6662 43.7322 30.2356 43.6284C31.6637 43.5579 33.1662 43.4207 34.5609 43.0721C45.6511 40.3611 51.5792 28.1522 46.7296 17.8274C43.799 11.6006 38.7783 8.05139 31.9092 7.32079C26.643 6.76449 21.9347 8.32954 17.9591 11.875C14.0541 15.3871 12.0309 19.767 11.8933 25.0184C11.8598 26.2349 11.8933 27.4884 11.8933 28.7048C11.8561 31.3528 10.3573 33.4037 7.80978 34.201C7.77631 34.201 7.70565 34.2715 7.66846 34.2715C8.64657 36.8453 12.6185 40.6355 15.0954 41.5738C18.2045 37.3311 24.4785 38.8294 25.5273 43.6618Z" fill="white"/>
<path d="M25.4568 45.9908C25.0737 47.7302 24.1328 49.0171 22.5968 49.8144C20.6443 50.8232 18.6547 50.7898 16.8063 49.6067C14.8873 48.3903 14.0505 46.5471 14.1918 44.2848C14.2253 43.9028 14.1211 43.7619 13.8087 43.5876C10.4244 41.8149 7.74298 39.3449 5.89462 36.0071C5.54503 35.347 5.2661 34.6498 5.0913 33.9192C4.84584 32.9104 5.23263 32.4246 6.27768 32.3208C7.53471 32.1798 8.65043 31.694 9.20828 30.5109C9.45374 29.988 9.59135 29.365 9.59135 28.7716C9.66201 27.277 9.59135 25.7824 9.66201 24.2841C10.0451 18.5098 12.4513 13.7145 16.8472 9.95766C20.8898 6.48637 25.6316 4.85457 30.9647 5.02517C40.2772 5.37378 48.262 11.9121 50.1438 21.0576C51.8509 29.3353 49.2736 36.2556 42.6797 41.6443C42.2966 41.9558 41.8764 42.271 41.4227 42.5492C41.1772 42.7235 41.1103 42.8607 41.2144 43.1389C42.0846 45.7831 40.8648 48.7018 38.4251 49.9553C35.1114 51.5909 31.2771 49.922 30.2655 46.3728C30.232 46.2319 30.0573 46.0613 29.9531 46.0613C28.4915 45.9574 26.989 45.9908 25.4568 45.9908ZM25.5275 43.6618C27.0969 43.6618 28.6663 43.7322 30.2358 43.6284C31.6639 43.5579 33.1664 43.4207 34.561 43.0721C45.6512 40.3611 51.5794 28.1522 46.7297 17.8274C43.7991 11.6006 38.7784 8.05142 31.9093 7.32082C26.6432 6.76452 21.9349 8.32957 17.9592 11.875C14.0542 15.3871 12.031 19.767 11.8934 25.0184C11.86 26.2349 11.8934 27.4884 11.8934 28.7048C11.8562 31.3528 10.3575 33.4037 7.80992 34.201C7.77645 34.201 7.70579 34.2715 7.6686 34.2715C8.64671 36.8453 12.6186 40.6355 15.0955 41.5738C18.2047 37.3311 24.4787 38.8294 25.5275 43.6618Z" fill="black"/>
<path d="M32.8838 34.5868C28.7668 34.3791 26.0482 32.7436 24.3039 29.4763C23.8837 28.6752 24.2705 27.8779 25.0701 27.7036C25.5573 27.5997 26.011 27.9483 26.3606 28.5046C26.8143 29.2019 27.268 29.8954 27.8593 30.4517C31.1358 33.5447 36.5061 32.573 38.5665 28.5751C38.8119 28.0893 39.1243 27.7073 39.7157 27.7073C40.5859 27.7407 41.0768 28.6122 40.6938 29.4095C39.6115 31.6013 37.9045 33.1998 35.6024 33.9637C34.5908 34.3087 33.5458 34.4459 32.8838 34.5868Z" fill="black"/>
<path d="M25.5945 23.179C24.3375 23.179 23.3296 22.1702 23.3296 20.9204C23.3296 19.6706 24.3412 18.6619 25.5945 18.6619C26.8478 18.6619 27.8594 19.6706 27.8594 20.9204C27.8631 22.1369 26.8515 23.179 25.5945 23.179Z" fill="black"/>
<path d="M41.5676 20.8833C41.5676 22.1368 40.556 23.1419 39.3362 23.179C38.0791 23.179 37.0713 22.2036 37.0713 20.9204C37.0713 19.6669 38.0494 18.6618 39.3027 18.6248C40.5226 18.6248 41.5304 19.6335 41.5676 20.8833Z" fill="black"/>
</svg>
