<svg width="37" height="38" viewBox="0 0 37 38" fill="none"
    xmlns="http://www.w3.org/2000/svg">
    <path fill-rule="evenodd" clip-rule="evenodd" d="M1 37L3.47273 27.7563C1.94724 25.0514 1.14502 21.9817 1.14594 18.8379C1.15053 9.00209 8.96706 1 18.5734 1C23.2353 1.00188 27.6098 2.86001 30.9003 6.23134C34.19 9.60361 36.0018 14.0849 36 18.852C35.9963 28.6878 28.178 36.6908 18.5734 36.6908C18.5725 36.6908 18.5734 36.6908 18.5734 36.6908H18.5661C15.65 36.6898 12.7835 35.9408 10.2383 34.5187L1 37Z" fill="white"/>
    <path fill-rule="evenodd" clip-rule="evenodd" d="M0.472351 37C0.347541 37 0.226513 36.9524 0.136688 36.8644C0.0184973 36.7481 -0.0278335 36.5787 0.0166063 36.422L2.51186 27.5958C0.964971 24.9341 0.14898 21.9114 0.150871 18.8429C0.154653 9.00366 8.41952 1 18.5754 1C23.5016 1.00183 28.13 2.86032 31.6086 6.23288C35.0872 9.60637 37.0019 14.0891 37 18.8557C36.9962 28.6941 28.7304 36.6986 18.5754 36.6986C15.5601 36.6977 12.577 35.9769 9.92952 34.613L0.592433 36.9844C0.552721 36.9954 0.513009 37 0.472351 37Z" fill="white"/>
    <path fill-rule="evenodd" clip-rule="evenodd" d="M18.5735 0.942834C23.2559 0.94472 27.6498 2.8087 30.9549 6.19065C34.2591 9.57354 36.079 14.069 36.0772 18.851C36.0735 28.7178 28.2205 36.746 18.5735 36.746H18.5661C15.6372 36.7451 12.758 35.9936 10.2015 34.5671L0.922304 37.0562L3.40597 27.7834C1.87373 25.07 1.06797 21.9907 1.06889 18.8369C1.0735 8.97013 8.92462 0.942834 18.5735 0.942834ZM18.5735 0C8.41756 0 0.151575 8.44968 0.146965 18.8369C0.146043 22.0114 0.92968 25.1397 2.41582 27.9088L0.0326467 36.8083C-0.0540142 37.1335 0.0344905 37.4805 0.266816 37.72C0.441981 37.901 0.678916 38 0.922304 38C1.00067 38 1.07903 37.9896 1.15647 37.9689L10.0872 35.5741C12.6944 36.9582 15.6169 37.6889 18.5661 37.6898C28.7294 37.6898 36.9954 29.2392 37 18.852C37.0018 13.8182 35.087 9.08515 31.6086 5.52501C28.1283 1.96392 23.4993 0.00188567 18.5735 0Z" fill="#CFD8DC"/>
    <path fill-rule="evenodd" clip-rule="evenodd" d="M28.7569 8.39692C26.0188 5.56259 22.3793 4.00095 18.5055 4C10.508 4 4.00368 10.7256 4 18.9929C3.99908 21.8263 4.76538 24.5845 6.21713 26.9731L6.56261 27.5405L5.09708 33.0733L10.5852 31.5848L11.1154 31.9099C13.3408 33.2767 15.8933 33.999 18.4954 34H18.5009C26.4929 34 32.9972 27.2735 33 19.0052C33.0009 14.999 31.495 11.2313 28.7569 8.39692Z" fill="#40C351"/>
    <path fill-rule="evenodd" clip-rule="evenodd" d="M13.5771 11.7435C13.2457 11.0367 12.8966 11.0224 12.5801 11.0099C12.3215 10.9991 12.0265 11 11.7315 11C11.4365 11 10.9567 11.1065 10.5506 11.5315C10.1445 11.9565 9 12.9827 9 15.071C9 17.1593 10.587 19.1778 10.8082 19.4606C11.0295 19.7433 13.8721 24.166 18.3736 25.8677C22.1142 27.2814 22.876 27.0005 23.6882 26.9298C24.5003 26.8591 26.3086 25.9035 26.6773 24.9122C27.0461 23.9208 27.0461 23.0717 26.9359 22.8945C26.8248 22.7174 26.5298 22.6118 26.0873 22.3989C25.6448 22.1859 23.4669 21.1597 23.0608 21.0183C22.6547 20.8769 22.3597 20.8063 22.0638 21.2312C21.7688 21.6553 20.9202 22.6118 20.6616 22.8945C20.4031 23.1782 20.1445 23.214 19.702 23.001C19.2595 22.7881 17.8331 22.3407 16.1406 20.8948C14.8243 19.7702 13.9356 18.3806 13.677 17.9556C13.4184 17.5315 13.649 17.3016 13.8712 17.0895C14.07 16.899 14.3136 16.5939 14.5358 16.346C14.7571 16.0982 14.8308 15.921 14.9783 15.6383C15.1258 15.3547 15.0521 15.1068 14.941 14.8948C14.8318 14.6818 13.971 12.5828 13.5771 11.7435Z" fill="white"/>
</svg>
