<svg width="40" height="40" viewBox="0 0 40 40" fill="none"
    xmlns="http://www.w3.org/2000/svg">
    <path d="M20 0C14.6957 0 9.60859 2.10714 5.85786 5.85786C2.10714 9.60859 0 14.6957 0 20C0 25.3043 2.10714 30.3914 5.85786 34.1421C9.60859 37.8929 14.6957 40 20 40C25.3043 40 30.3914 37.8929 34.1421 34.1421C37.8929 30.3914 40 25.3043 40 20C40 14.6957 37.8929 9.60859 34.1421 5.85786C30.3914 2.10714 25.3043 0 20 0V0Z" fill="#0288D1"/>
    <path d="M10 15H14V30H10V15ZM11.988 13H11.966C10.772 13 10 12.11 10 10.999C10 9.864 10.796 9 12.011 9C13.228 9 13.977 9.864 14 10.999C14 12.11 13.228 13 11.988 13ZM31 20.5C31 17.462 28.538 15 25.5 15C23.638 15 21.995 15.928 21 17.344V15H17V30H21V22C21 20.343 22.343 19 24 19C25.657 19 27 20.343 27 22V30H31C31 30 31 20.921 31 20.5Z" fill="white"/>
</svg>
